<svg width="295" height="107" viewBox="0 0 295 107" fill="none" xmlns="http://www.w3.org/2000/svg">
<path d="M115.031 3V65.9502H145.842L139.125 99.2939H81.6875V3H115.031Z" stroke="#1E1E1E" stroke-width="6"/>
<path d="M66.9499 0L118.031 0L58.0319 102.294H0L66.9499 0Z" fill="#1E1E1E"/>
<path d="M140.138 26.2586C149.313 26.2586 154.578 30.3247 154.578 39.2912V54.9824H145.351V51.3333C143.944 54.0441 141.129 55.4516 137.01 55.4516C130.233 55.4516 126.48 51.6461 126.48 46.7458C126.48 41.5328 130.285 38.3007 139.043 38.3007H144.673C144.517 35.4335 142.588 33.8175 138.678 33.8175C135.968 33.8175 132.944 34.7558 131.015 36.2676L127.679 29.5428C130.911 27.4054 135.707 26.2586 140.138 26.2586ZM139.773 49.1959C141.963 49.1959 143.891 48.1533 144.673 45.9117V43.4616H140.399C137.219 43.4616 136.072 44.6085 136.072 46.3288C136.072 47.9969 137.427 49.1959 139.773 49.1959ZM174.114 55.4516C164.626 55.4516 157.901 49.4045 157.901 40.803C157.901 32.3057 164.626 26.2586 174.114 26.2586C180.526 26.2586 185.426 29.1257 187.355 34.026L179.692 37.9358C178.336 35.2771 176.355 34.1303 174.062 34.1303C170.621 34.1303 167.91 36.5283 167.91 40.803C167.91 45.1819 170.621 47.5799 174.062 47.5799C176.355 47.5799 178.336 46.433 179.692 43.7744L187.355 47.6842C185.426 52.5844 180.526 55.4516 174.114 55.4516ZM208.589 46.9022L211.039 53.8356C209.319 54.9303 206.764 55.4516 204.158 55.4516C196.912 55.4516 192.689 51.9067 192.689 44.6606V35.1729H188.571V27.7704H192.689V20.42H202.594V27.7704H209.058V35.1729H202.594V44.5563C202.594 46.6416 203.793 47.7884 205.565 47.7884C206.66 47.7884 207.755 47.4756 208.589 46.9022ZM218.247 23.5999C214.598 23.5999 212.2 21.3062 212.2 18.3348C212.2 15.3633 214.598 13.0696 218.247 13.0696C221.896 13.0696 224.294 15.2069 224.294 18.1784C224.294 21.3062 221.896 23.5999 218.247 23.5999ZM213.295 54.9824V26.7277H223.199V54.9824H213.295ZM242.252 55.4516C233.025 55.4516 226.3 49.3523 226.3 40.803C226.3 32.3057 233.025 26.2586 242.252 26.2586C251.583 26.2586 258.204 32.3057 258.204 40.803C258.204 49.3523 251.583 55.4516 242.252 55.4516ZM242.252 47.5799C245.64 47.5799 248.195 45.1298 248.195 40.803C248.195 36.5283 245.64 34.1303 242.252 34.1303C238.915 34.1303 236.309 36.5283 236.309 40.803C236.309 45.1298 238.915 47.5799 242.252 47.5799ZM279.63 26.2586C286.251 26.2586 291.307 30.0641 291.307 38.822V54.9824H281.402V40.438C281.402 36.3719 279.63 34.6516 276.763 34.6516C273.583 34.6516 271.133 36.6325 271.133 41.3243V54.9824H261.228V26.7277H270.664V29.8034C272.905 27.4576 276.085 26.2586 279.63 26.2586Z" fill="#1E1E1E"/>
<path d="M157.174 101.802V63.121H167.079V101.802H157.174ZM183.994 73.0779C193.169 73.0779 198.434 77.1441 198.434 86.1105V101.802H189.207V98.1526C187.799 100.863 184.984 102.271 180.866 102.271C174.089 102.271 170.336 98.4654 170.336 93.5652C170.336 88.3521 174.141 85.12 182.899 85.12H188.529C188.373 82.2529 186.444 80.6368 182.534 80.6368C179.824 80.6368 176.8 81.5752 174.871 83.0869L171.535 76.3621C174.767 74.2248 179.563 73.0779 183.994 73.0779ZM183.629 96.0153C185.819 96.0153 187.747 94.9727 188.529 92.7311V90.2809H184.255C181.075 90.2809 179.928 91.4278 179.928 93.1481C179.928 94.8163 181.283 96.0153 183.629 96.0153ZM220.899 73.0779C228.562 73.0779 234.765 78.6559 234.765 87.6223C234.765 96.6408 228.562 102.271 220.899 102.271C217.197 102.271 214.434 101.228 212.558 98.9867V101.802H203.122V63.121H213.027V75.9972C214.956 74.0163 217.614 73.0779 220.899 73.0779ZM218.813 94.3992C222.15 94.3992 224.756 91.9491 224.756 87.6223C224.756 83.3476 222.15 80.9496 218.813 80.9496C215.477 80.9496 212.871 83.3476 212.871 87.6223C212.871 91.9491 215.477 94.3992 218.813 94.3992Z" fill="#1E1E1E"/>
</svg>
